<svg width="21" height="21" viewBox="0 0 21 21" fill="none" xmlns="http://www.w3.org/2000/svg">
<path d="M17.291 17.8105C15.5549 17.8105 13.8396 17.4321 12.1452 16.6751C10.4507 15.9182 8.90907 14.8453 7.52018 13.4564C6.13129 12.0675 5.05838 10.5258 4.30143 8.83138C3.54449 7.13694 3.16602 5.42166 3.16602 3.68555C3.16602 3.43555 3.24935 3.22721 3.41602 3.06055C3.58268 2.89388 3.79102 2.81055 4.04102 2.81055H7.41602C7.61046 2.81055 7.78407 2.87652 7.93685 3.00846C8.08963 3.14041 8.1799 3.29666 8.20768 3.47721L8.74935 6.39388C8.77713 6.6161 8.77018 6.8036 8.72852 6.95638C8.68685 7.10916 8.61046 7.2411 8.49935 7.35221L6.47852 9.39388C6.75629 9.90777 7.08615 10.4043 7.4681 10.8835C7.85004 11.3626 8.27018 11.8244 8.72852 12.2689C9.15907 12.6994 9.61046 13.0987 10.0827 13.4668C10.5549 13.8349 11.0549 14.1717 11.5827 14.4772L13.541 12.5189C13.666 12.3939 13.8292 12.3001 14.0306 12.2376C14.232 12.1751 14.4299 12.1578 14.6243 12.1855L17.4993 12.7689C17.6938 12.8244 17.8535 12.9251 17.9785 13.071C18.1035 13.2168 18.166 13.38 18.166 13.5605V16.9355C18.166 17.1855 18.0827 17.3939 17.916 17.5605C17.7493 17.7272 17.541 17.8105 17.291 17.8105ZM5.68685 7.81055L7.06185 6.43555L6.70768 4.47721H4.85352C4.92296 5.04666 5.02018 5.60916 5.14518 6.16471C5.27018 6.72027 5.45074 7.26888 5.68685 7.81055ZM13.1452 15.2689C13.6868 15.505 14.2389 15.6925 14.8014 15.8314C15.3639 15.9703 15.9299 16.0605 16.4993 16.1022V14.2689L14.541 13.873L13.1452 15.2689Z" fill="#E8EAED"/>
</svg>
