<svg width="21" height="21" viewBox="0 0 21 21" fill="none" xmlns="http://www.w3.org/2000/svg">
<path d="M3.9987 16.9779C3.54036 16.9779 3.148 16.8147 2.82161 16.4883C2.49523 16.1619 2.33203 15.7695 2.33203 15.3112V5.3112C2.33203 4.85286 2.49523 4.4605 2.82161 4.13411C3.148 3.80773 3.54036 3.64453 3.9987 3.64453H17.332C17.7904 3.64453 18.1827 3.80773 18.5091 4.13411C18.8355 4.4605 18.9987 4.85286 18.9987 5.3112V15.3112C18.9987 15.7695 18.8355 16.1619 18.5091 16.4883C18.1827 16.8147 17.7904 16.9779 17.332 16.9779H3.9987ZM10.6654 11.1445L3.9987 6.97786V15.3112H17.332V6.97786L10.6654 11.1445ZM10.6654 9.47786L17.332 5.3112H3.9987L10.6654 9.47786ZM3.9987 6.97786V5.3112V15.3112V6.97786Z" fill="#E8EAED"/>
</svg>
