<svg width="151" height="55" viewBox="0 0 151 55" fill="none" xmlns="http://www.w3.org/2000/svg">
<g filter="url(#filter0_d_1_45)">
<g clip-path="url(#clip0_1_45)">
<rect x="-36.6625" y="0.542969" width="215.861" height="45.4945" rx="22.7472" fill="white" stroke="url(#paint0_linear_1_45)"/>
<g opacity="0.8" filter="url(#filter1_f_1_45)">
<rect width="56.0517" height="30" rx="15" transform="matrix(1 -1.07618e-07 -7.10173e-08 -1 100.65 53.291)" fill="url(#paint1_angular_1_45)"/>
</g>
<g opacity="0.8" filter="url(#filter2_f_1_45)">
<rect width="56.0517" height="30" rx="15" transform="matrix(1 -1.07618e-07 -7.10173e-08 -1 -9.1366 23.291)" fill="url(#paint2_angular_1_45)"/>
</g>
<g opacity="0.8" filter="url(#filter3_f_1_45)">
<rect width="56.0517" height="30" rx="15" transform="matrix(1 -1.07618e-07 -7.10173e-08 -1 -37.1625 34.791)" fill="url(#paint3_angular_1_45)"/>
</g>
<g opacity="0.8" filter="url(#filter4_f_1_45)">
<rect width="56.0517" height="30" rx="15" transform="matrix(1 -1.07618e-07 -7.10173e-08 -1 115.903 11.791)" fill="url(#paint4_angular_1_45)"/>
</g>
<g opacity="0.8" filter="url(#filter5_f_1_45)">
<rect width="56.0517" height="30" rx="15" transform="matrix(1 -1.07618e-07 -7.10173e-08 -1 36.2617 11.791)" fill="url(#paint5_angular_1_45)"/>
</g>
<g opacity="0.8" filter="url(#filter6_f_1_45)">
<rect width="56.0517" height="30" rx="15" transform="matrix(1 -1.07618e-07 -7.10173e-08 -1 78.646 67.8555)" fill="url(#paint6_angular_1_45)"/>
</g>
<g opacity="0.8" filter="url(#filter7_f_1_45)">
<rect width="56.0517" height="30" rx="15" transform="matrix(1 -1.07618e-07 -7.10173e-08 -1 126.071 62.002)" fill="url(#paint7_angular_1_45)"/>
</g>
<g opacity="0.7">
<g opacity="0.9">
<ellipse cx="124.384" cy="34.5148" rx="0.80057" ry="0.985507" fill="white"/>
<ellipse cx="124.384" cy="17.7601" rx="1.60114" ry="1.97101" fill="white"/>
<ellipse opacity="0.5" cx="114.377" cy="46.834" rx="2.802" ry="3.44928" fill="white"/>
<ellipse cx="80.7533" cy="30.0787" rx="0.400285" ry="0.492754" fill="white"/>
<ellipse cx="71.5467" cy="44.3703" rx="0.80057" ry="0.985507" fill="white"/>
<ellipse opacity="0.5" cx="53.1336" cy="28.6019" rx="1.60114" ry="1.97101" fill="white"/>
<ellipse opacity="0.5" cx="145.199" cy="13.8187" rx="1.60114" ry="1.97101" fill="white"/>
<ellipse cx="73.9484" cy="8.89176" rx="0.80057" ry="0.985507" fill="white"/>
<ellipse cx="145.199" cy="45.3558" rx="1.60114" ry="1.97101" fill="white"/>
<ellipse opacity="0.8" cx="45.1279" cy="1.99332" rx="0.80057" ry="0.985507" fill="white"/>
</g>
<g opacity="0.9">
<ellipse cx="0.80057" cy="0.985507" rx="0.80057" ry="0.985507" transform="matrix(-1 0 0 1 27.6213 22.5293)" fill="white"/>
<ellipse cx="1.60114" cy="1.97101" rx="1.60114" ry="1.97101" transform="matrix(-1 0 0 1 28.4219 4.78906)" fill="white"/>
<ellipse opacity="0.5" cx="2.802" cy="3.44928" rx="2.802" ry="3.44928" transform="matrix(-1 0 0 1 39.6298 32.3848)" fill="white"/>
<ellipse cx="0.400285" cy="0.492754" rx="0.400285" ry="0.492754" transform="matrix(-1 0 0 1 70.8521 18.5859)" fill="white"/>
<ellipse cx="0.80057" cy="0.985507" rx="0.80057" ry="0.985507" transform="matrix(-1 0 0 1 80.4589 32.3848)" fill="white"/>
<ellipse opacity="0.5" cx="1.60114" cy="1.97101" rx="1.60114" ry="1.97101" transform="matrix(-1 0 0 1 99.6726 15.6309)" fill="white"/>
<ellipse opacity="0.2" cx="2.802" cy="3.44928" rx="2.802" ry="3.44928" transform="matrix(-1 0 0 1 102.074 42.2383)" fill="white"/>
<ellipse opacity="0.5" cx="1.60114" cy="1.97101" rx="1.60114" ry="1.97101" transform="matrix(-1 0 0 1 7.60706 0.847656)" fill="white"/>
<ellipse cx="1.60114" cy="1.97101" rx="1.60114" ry="1.97101" transform="matrix(-1 0 0 1 59.6441 42.2383)" fill="white"/>
<ellipse cx="1.60114" cy="1.97101" rx="1.60114" ry="1.97101" transform="matrix(-1 0 0 1 7.60706 32.3848)" fill="white"/>
</g>
</g>
</g>
</g>
<defs>
<filter id="filter0_d_1_45" x="0.928711" y="0.0429688" width="149.973" height="54.4945" filterUnits="userSpaceOnUse" color-interpolation-filters="sRGB">
<feFlood flood-opacity="0" result="BackgroundImageFix"/>
<feColorMatrix in="SourceAlpha" type="matrix" values="0 0 0 0 0 0 0 0 0 0 0 0 0 0 0 0 0 0 127 0" result="hardAlpha"/>
<feOffset dy="4"/>
<feGaussianBlur stdDeviation="2"/>
<feComposite in2="hardAlpha" operator="out"/>
<feColorMatrix type="matrix" values="0 0 0 0 0 0 0 0 0 0 0 0 0 0 0 0 0 0 0.25 0"/>
<feBlend mode="normal" in2="BackgroundImageFix" result="effect1_dropShadow_1_45"/>
<feBlend mode="normal" in="SourceGraphic" in2="effect1_dropShadow_1_45" result="shape"/>
</filter>
<filter id="filter1_f_1_45" x="60.6504" y="-16.709" width="136.052" height="110" filterUnits="userSpaceOnUse" color-interpolation-filters="sRGB">
<feFlood flood-opacity="0" result="BackgroundImageFix"/>
<feBlend mode="normal" in="SourceGraphic" in2="BackgroundImageFix" result="shape"/>
<feGaussianBlur stdDeviation="20" result="effect1_foregroundBlur_1_45"/>
</filter>
<filter id="filter2_f_1_45" x="-49.1366" y="-46.709" width="136.052" height="110" filterUnits="userSpaceOnUse" color-interpolation-filters="sRGB">
<feFlood flood-opacity="0" result="BackgroundImageFix"/>
<feBlend mode="normal" in="SourceGraphic" in2="BackgroundImageFix" result="shape"/>
<feGaussianBlur stdDeviation="20" result="effect1_foregroundBlur_1_45"/>
</filter>
<filter id="filter3_f_1_45" x="-77.1625" y="-35.209" width="136.052" height="110" filterUnits="userSpaceOnUse" color-interpolation-filters="sRGB">
<feFlood flood-opacity="0" result="BackgroundImageFix"/>
<feBlend mode="normal" in="SourceGraphic" in2="BackgroundImageFix" result="shape"/>
<feGaussianBlur stdDeviation="20" result="effect1_foregroundBlur_1_45"/>
</filter>
<filter id="filter4_f_1_45" x="75.9028" y="-58.209" width="136.052" height="110" filterUnits="userSpaceOnUse" color-interpolation-filters="sRGB">
<feFlood flood-opacity="0" result="BackgroundImageFix"/>
<feBlend mode="normal" in="SourceGraphic" in2="BackgroundImageFix" result="shape"/>
<feGaussianBlur stdDeviation="20" result="effect1_foregroundBlur_1_45"/>
</filter>
<filter id="filter5_f_1_45" x="-3.73828" y="-58.209" width="136.052" height="110" filterUnits="userSpaceOnUse" color-interpolation-filters="sRGB">
<feFlood flood-opacity="0" result="BackgroundImageFix"/>
<feBlend mode="normal" in="SourceGraphic" in2="BackgroundImageFix" result="shape"/>
<feGaussianBlur stdDeviation="20" result="effect1_foregroundBlur_1_45"/>
</filter>
<filter id="filter6_f_1_45" x="38.646" y="-2.14453" width="136.052" height="110" filterUnits="userSpaceOnUse" color-interpolation-filters="sRGB">
<feFlood flood-opacity="0" result="BackgroundImageFix"/>
<feBlend mode="normal" in="SourceGraphic" in2="BackgroundImageFix" result="shape"/>
<feGaussianBlur stdDeviation="20" result="effect1_foregroundBlur_1_45"/>
</filter>
<filter id="filter7_f_1_45" x="86.0706" y="-7.99805" width="136.052" height="110" filterUnits="userSpaceOnUse" color-interpolation-filters="sRGB">
<feFlood flood-opacity="0" result="BackgroundImageFix"/>
<feBlend mode="normal" in="SourceGraphic" in2="BackgroundImageFix" result="shape"/>
<feGaussianBlur stdDeviation="20" result="effect1_foregroundBlur_1_45"/>
</filter>
<linearGradient id="paint0_linear_1_45" x1="71.2678" y1="0.0429687" x2="71.2678" y2="46.5374" gradientUnits="userSpaceOnUse">
<stop stop-color="#A3A3A3"/>
<stop offset="1" stop-color="white" stop-opacity="0"/>
</linearGradient>
<radialGradient id="paint1_angular_1_45" cx="0" cy="0" r="1" gradientUnits="userSpaceOnUse" gradientTransform="translate(29.4106 15.8599) rotate(-16.3667) scale(25.4294 25.0592)">
<stop offset="0.28" stop-color="#EADC5B"/>
<stop offset="0.625" stop-color="#E4D744"/>
<stop offset="0.795" stop-color="#E5EC5F"/>
<stop offset="0.875" stop-color="#796F17"/>
<stop offset="1" stop-color="#90851E"/>
</radialGradient>
<radialGradient id="paint2_angular_1_45" cx="0" cy="0" r="1" gradientUnits="userSpaceOnUse" gradientTransform="translate(29.4106 15.8599) rotate(-16.3667) scale(25.4294 25.0592)">
<stop offset="0.28" stop-color="#EADC5B"/>
<stop offset="0.625" stop-color="#E4D744"/>
<stop offset="0.795" stop-color="#E5EC5F"/>
<stop offset="0.875" stop-color="#796F17"/>
<stop offset="1" stop-color="#90851E"/>
</radialGradient>
<radialGradient id="paint3_angular_1_45" cx="0" cy="0" r="1" gradientUnits="userSpaceOnUse" gradientTransform="translate(29.4106 15.8599) rotate(-16.3667) scale(25.4294 25.0592)">
<stop offset="0.28" stop-color="#EADC5B"/>
<stop offset="0.625" stop-color="#E4D744"/>
<stop offset="0.795" stop-color="#E5EC5F"/>
<stop offset="0.875" stop-color="#796F17"/>
<stop offset="1" stop-color="#90851E"/>
</radialGradient>
<radialGradient id="paint4_angular_1_45" cx="0" cy="0" r="1" gradientUnits="userSpaceOnUse" gradientTransform="translate(29.4106 15.8599) rotate(-16.3667) scale(25.4294 25.0592)">
<stop offset="0.28" stop-color="#EADC5B"/>
<stop offset="0.625" stop-color="#E4D744"/>
<stop offset="0.795" stop-color="#E5EC5F"/>
<stop offset="0.875" stop-color="#796F17"/>
<stop offset="1" stop-color="#90851E"/>
</radialGradient>
<radialGradient id="paint5_angular_1_45" cx="0" cy="0" r="1" gradientUnits="userSpaceOnUse" gradientTransform="translate(29.4106 15.8599) rotate(-16.3667) scale(25.4294 25.0592)">
<stop offset="0.28" stop-color="#EADC5B"/>
<stop offset="0.625" stop-color="#E4D744"/>
<stop offset="0.795" stop-color="#E5EC5F"/>
<stop offset="0.875" stop-color="#796F17"/>
<stop offset="1" stop-color="#90851E"/>
</radialGradient>
<radialGradient id="paint6_angular_1_45" cx="0" cy="0" r="1" gradientUnits="userSpaceOnUse" gradientTransform="translate(29.4106 15.8599) rotate(-16.3667) scale(25.4294 25.0592)">
<stop offset="0.28" stop-color="#EADC5B"/>
<stop offset="0.625" stop-color="#E4D744"/>
<stop offset="0.795" stop-color="#E5EC5F"/>
<stop offset="0.875" stop-color="#796F17"/>
<stop offset="1" stop-color="#90851E"/>
</radialGradient>
<radialGradient id="paint7_angular_1_45" cx="0" cy="0" r="1" gradientUnits="userSpaceOnUse" gradientTransform="translate(29.4106 15.8599) rotate(-16.3667) scale(25.4294 25.0592)">
<stop offset="0.28" stop-color="#EADC5B"/>
<stop offset="0.625" stop-color="#E4D744"/>
<stop offset="0.795" stop-color="#E5EC5F"/>
<stop offset="0.875" stop-color="#796F17"/>
<stop offset="1" stop-color="#90851E"/>
</radialGradient>
<clipPath id="clip0_1_45">
<rect x="4.92871" y="0.0429688" width="141.973" height="46.4945" rx="10" fill="white"/>
</clipPath>
</defs>
</svg>
